<svg width="450" height="152" viewBox="0 0 450 152"  fill="none" xmlns="http://www.w3.org/2000/svg">
<path d="M434.281 50.4407C430.579 45.6691 425.834 41.8074 420.411 39.1508C414.987 36.4942 409.028 35.1131 402.988 35.1131C396.949 35.1131 390.99 36.4942 385.566 39.1508C380.142 41.8074 375.398 45.6691 371.696 50.4407C366.734 57.52 364.131 65.984 364.258 74.6282C364.131 83.2724 366.734 91.7364 371.696 98.8157C375.398 103.587 380.142 107.449 385.566 110.106C390.99 112.762 396.949 114.143 402.988 114.143C409.028 114.143 414.987 112.762 420.411 110.106C425.834 107.449 430.579 103.587 434.281 98.8157C439.241 91.7355 441.844 83.2721 441.719 74.6282C441.844 65.9843 439.241 57.5209 434.281 50.4407V50.4407ZM421.885 83.6985C419.043 92.1943 412.301 98.8157 402.958 99.0273C393.616 99.2389 386.873 92.1943 384.062 83.6985C382.051 77.8188 382.051 71.4375 384.062 65.5579C386.904 57.062 393.646 50.4407 402.958 50.229C412.27 50.0174 419.043 57.062 421.885 65.5579C423.887 71.4287 423.887 77.7974 421.885 83.6682V83.6985ZM136.926 112.119C136.926 112.712 136.69 113.281 136.271 113.701C135.851 114.12 135.282 114.356 134.689 114.356H121.688C121.094 114.356 120.525 114.12 120.106 113.701C119.686 113.281 119.45 112.712 119.45 112.119V5.24027C119.45 4.64689 119.686 4.07782 120.106 3.65823C120.525 3.23865 121.094 3.00293 121.688 3.00293H134.689C135.282 3.00293 135.851 3.23865 136.271 3.65823C136.69 4.07782 136.926 4.64689 136.926 5.24027V112.119ZM106.389 112.119C106.389 112.712 106.153 113.281 105.734 113.701C105.314 114.12 104.745 114.356 104.152 114.356H91.151C90.5577 114.356 89.9886 114.12 89.569 113.701C89.1494 113.281 88.9137 112.712 88.9137 112.119V5.24027C88.9136 4.65209 89.1452 4.08755 89.5583 3.66883C89.9713 3.2501 90.5327 3.01088 91.1208 3.00293H104.122C104.715 3.00293 105.284 3.23865 105.704 3.65823C106.123 4.07782 106.359 4.64689 106.359 5.24027V112.119H106.389ZM361.325 39.5563V48.6266C361.378 49.0181 361.331 49.4165 361.19 49.7852C361.048 50.154 360.816 50.4813 360.515 50.7371C360.214 50.9929 359.854 51.1691 359.467 51.2493C359.081 51.3296 358.68 51.3114 358.302 51.1965C343.608 48.1731 334.568 54.7037 334.568 68.279V112.119C334.568 112.712 334.332 113.281 333.913 113.701C333.493 114.12 332.924 114.356 332.331 114.356H319.33C318.736 114.356 318.167 114.12 317.748 113.701C317.328 113.281 317.093 112.712 317.093 112.119V67.3417C317.014 63.1062 317.827 58.9017 319.478 55.0005C321.13 51.0994 323.582 47.5887 326.677 44.6961C333.032 38.4823 341.583 35.0273 350.471 35.0816C353.514 35.0897 356.55 35.3731 359.542 35.9282C361.084 36.4422 361.325 37.3492 361.325 39.6772V39.5563ZM305.664 74.5979C305.829 65.9484 303.223 57.473 298.226 50.4104C294.524 45.6389 289.78 41.7772 284.356 39.1206C278.932 36.464 272.973 35.0828 266.934 35.0828C260.894 35.0828 254.935 36.464 249.511 39.1206C244.088 41.7772 239.343 45.6389 235.641 50.4104C230.728 57.5194 228.096 65.9562 228.096 74.5979C228.096 83.2397 230.728 91.6765 235.641 98.7854C239.284 103.622 244.016 107.53 249.453 110.194C254.891 112.857 260.88 114.201 266.934 114.114C274.863 114.14 282.621 111.804 289.216 107.402V116.956C289.216 129.927 277.879 132.285 270.622 132.739C265.629 132.904 260.632 132.631 255.687 131.922C253.691 131.62 252.3 131.922 252.3 134.069V145.558C252.312 145.816 252.374 146.07 252.484 146.304C252.594 146.538 252.748 146.748 252.939 146.922C253.13 147.096 253.354 147.231 253.597 147.318C253.84 147.406 254.098 147.445 254.356 147.433C271.197 148.884 282.535 148.581 291.061 143.714C297.034 140.182 301.467 134.54 303.487 127.901C304.995 122.779 305.719 117.458 305.634 112.119V74.5979H305.664ZM266.934 98.9668C257.591 98.9668 250.849 92.1339 248.007 83.638C245.996 77.7583 245.996 71.3771 248.007 65.4974C250.849 57.0015 257.591 50.1686 266.934 50.1686C287.826 50.1686 288.521 71.4838 288.521 74.5677C288.521 77.6516 287.826 98.9668 266.934 98.9668ZM77.0014 66.7672C77.0014 56.4573 74.7035 48.6266 69.7451 43.2147C64.7867 37.8027 54.8093 35.1118 45.5576 35.1118C36.271 35.0755 27.1413 37.5066 19.1025 42.1564C18.8509 42.3052 18.643 42.5178 18.4996 42.7725C18.3563 43.0273 18.2827 43.3154 18.2862 43.6077L18.9816 54.9758C19.0434 55.3295 19.198 55.6604 19.4297 55.9346C19.6614 56.2088 19.9618 56.4166 20.3002 56.5365C20.6385 56.6565 21.0027 56.6844 21.3554 56.6173C21.7081 56.5503 22.0366 56.3907 22.3074 56.155C33.6453 49.1708 47.2507 47.8707 54.1744 51.3779C56.0792 52.4758 57.6487 54.0721 58.7142 55.9952C59.7796 57.9183 60.3006 60.0955 60.2213 62.2925V63.9554H41.3248C33.1917 63.9554 8.27862 66.9789 8.27862 89.8663V90.1082C8.08476 93.5911 8.71468 97.0706 10.1173 100.265C11.5198 103.458 13.6556 106.277 16.3512 108.491C22.2393 112.639 29.3569 114.674 36.5478 114.265H74.7942C75.3876 114.265 75.9567 114.03 76.3763 113.61C76.7959 113.191 77.0316 112.621 77.0316 112.028V66.6765L77.0014 66.7672ZM60.2213 100.297H37.6362C34.7384 100.214 31.9383 99.2313 29.6241 97.4854C28.4337 96.6495 27.4666 95.5342 26.8077 94.2375C26.1487 92.9407 25.8181 91.502 25.8448 90.0477C25.8448 85.9661 28.5961 77.8028 42.3528 77.8028H60.2213V100.297ZM184.787 35.1118C161.658 35.1118 151.529 50.6221 148.294 63.7438C147.404 67.2828 146.957 70.9186 146.964 74.5677C146.839 83.2116 149.441 91.675 154.401 98.7552C158.108 103.522 162.853 107.38 168.276 110.037C173.699 112.693 179.656 114.077 185.694 114.084C198.181 114.538 206.525 112.421 212.905 108.793C213.527 108.392 214.007 107.805 214.279 107.116C214.55 106.428 214.598 105.671 214.417 104.953V94.8852C214.417 92.8293 213.177 91.8618 211.393 93.1014C203.926 97.8869 195.064 100.017 186.238 99.1482C181.212 99.082 176.383 97.1792 172.663 93.7986C168.942 90.418 166.587 85.7931 166.042 80.796H217.44C217.996 80.796 218.53 80.5772 218.926 80.1868C219.322 79.7964 219.548 79.2659 219.556 78.7098C220.463 64.6508 216.382 35.1118 184.787 35.1118V35.1118ZM166.314 66.8882C166.418 64.5736 166.981 62.3029 167.971 60.2081C168.96 58.1132 170.357 56.2361 172.079 54.6859C173.801 53.1357 175.813 51.9433 178 51.1782C180.187 50.413 182.504 50.0904 184.817 50.229C187.031 50.0935 189.247 50.4333 191.319 51.2256C193.39 52.0178 195.267 53.2441 196.825 54.8222C198.383 56.4002 199.586 58.2934 200.351 60.3746C201.117 62.4557 201.428 64.6767 201.265 66.8882H166.314Z" fill="#FF5A00" class="content__findUs--allegro"/>
</svg>
