<svg viewBox="545.8146 233.4818 197.6213 23.0115" width="197.621" height="23.011" xmlns="http://www.w3.org/2000/svg">
  <defs>
    <clipPath id="clipPath276">
      <path d="m21 21h841.89v130.39h-841.89z"/>
    </clipPath>
    <clipPath id="clipPath304">
      <path d="m21 21h841.89v130.39h-841.89z"/>
    </clipPath>
  </defs>
  <g transform="matrix(0.24542000889778134, 0, 0, -0.24542000889778134, 536.298714046161, 266.27051178023976)">
    <g clip-path="url(#clipPath276)">
      <g transform="translate(38.774,95.689)">
        <path d="m0 0v-53.122h68.105s47.674 1.981 49.036 36.777c0.262 6.71 0 20.431 0 20.431s-5.449 29.967-43.588 29.967h-54.484l-16.345-21.794h64.019s21.794-1.362 21.794-20.432c0-17.707-10.897-23.155-21.794-23.155h-36.777v31.328z" fill="#ffffff"/>
      </g>
      <g transform="translate(169.54,95.689)"/>
      <g transform="translate(196.78,90.241)"/>
      <g transform="translate(305.75,39.843)">
        <path d="m0 0s16.345 59.932 24.518 83.088c16.007 24.011 29.966 0 29.966 0s24.518-43.587 27.242-49.035c2.724-5.449 5.449 0 5.449 0s16.345 31.328 27.242 49.035c10.896 17.708 28.604 6.811 29.966 0 1.362-6.81 24.518-83.088 24.518-83.088h-27.242l-16.346 55.846-24.517-43.587s-5.449-12.259-12.259-12.259c-6.811 0-14.984 0-21.794 12.259-6.811 12.259-23.156 44.949-23.156 44.949l-16.345-57.208z" fill="#ffffff"/>
      </g>
    </g>
    <g transform="translate(485.54,131.1)" fill="#808080">
      <path d="m0 0v-91.261h85.812l19.07 23.156h-77.64v13.621h54.484l16.345 19.069h-70.829v12.259h58.57l16.346 23.156z" fill="#ffffff"/>
    </g>
    <g fill="#999">
      <g clip-path="url(#clipPath304)" fill="#999">
        <g transform="translate(599.96,131.1)">
          <path d="m0 0h27.242v-35.415l42.225 35.415h40.863l-53.122-39.501s-4.086-2.724 0-5.448c4.087-2.725 55.846-44.95 55.846-44.95h-40.863l-43.587 38.139v-38.139h-28.604v89.899" fill="#ffffff"/>
        </g>
        <g transform="translate(797.7,133.07)">
          <path d="m0 0h-35.415c-47.673 0-49.035-36.777-49.035-36.777s-1.076-1.345 0-21.793c1.362-25.88 40.863-32.691 40.863-32.691s-1.362-1.362 47.673 0c36.777 4.087 42.225 34.053 42.225 34.053v20.431c0 32.691-46.311 36.777-46.311 36.777m19.069-57.208s-6.81-12.259-19.069-12.259h-36.777s-20.431 1.362-20.431 14.983v12.259s0 16.345 20.431 17.707c20.432 1.362 34.053 0 34.053 0s21.793 0 21.793-14.983z" fill="#ffffff"/>
        </g>
        <g transform="matrix(1, 0, 0, 1, 254.364429, 132.019198)">
          <path d="m0 0h-35.415c-47.673 0-49.035-36.777-49.035-36.777s-1.076-1.345 0-21.793c1.362-25.88 40.863-32.691 40.863-32.691s-1.362-1.362 47.673 0c36.777 4.087 42.225 34.053 42.225 34.053v20.431c0 32.691-46.311 36.777-46.311 36.777m19.069-57.208s-6.81-12.259-19.069-12.259h-36.777s-20.431 1.362-20.431 14.983v12.259s0 16.345 20.431 17.707c20.432 1.362 34.053 0 34.053 0s21.793 0 21.793-14.983z" fill="#ffffff"/>
        </g>
      </g>
    </g>
  </g>
</svg>