<?xml version="1.0" encoding="utf-8"?>
<!-- Generator: Adobe Illustrator 21.0.0, SVG Export Plug-In . SVG Version: 6.00 Build 0)  -->
<svg version="1.1" id="Warstwa_1" xmlns="http://www.w3.org/2000/svg" xmlns:xlink="http://www.w3.org/1999/xlink" x="0px" y="0px"
	 viewBox="0 0 429.5 194.8" style="enable-background:new 0 0 429.5 194.8;" xml:space="preserve">
<style type="text/css">
	.st0{fill:#243674;}
	.st1{fill:#DA1A35;}
</style>
<path class="st0" d="M366.5,131.1h-30.7c-4.7,0-8.6,3.8-8.6,8.6v30.7c0,4.7,3.8,8.6,8.6,8.6h30.7c4.7,0,8.5-3.8,8.6-8.5
	c0,0,0,0,0-0.1v-30.7l0,0C375.1,135,371.2,131.2,366.5,131.1z M364.4,165.8L364.4,165.8c-0.1,1.4-1.2,2.5-2.5,2.5h-21.3
	c-1.4,0-2.5-1.1-2.5-2.5l0,0v-20.2v-1.2c0-1.4,1.1-2.5,2.5-2.5h21.3c1.4,0,2.5,1.1,2.5,2.5c0,0,0,0,0,0l0,1.2L364.4,165.8z M0,139.7
	v30.7c0,4.7,3.8,8.6,8.6,8.6h39.3v-10.8H13.2c-1.4,0-2.5-1.1-2.5-2.5l0,0h-0.1v-6.2h29.5v-9H10.7v-5l0.1-1.2c0-1.4,1.1-2.5,2.5-2.5
	l0,0h34.7v-10.8H8.6C3.8,131.2,0,135,0,139.7z M163.6,139.7v30.7c0,4.7,3.8,8.6,8.6,8.6h39.3v-10.8h-34.7c-1.4,0-2.5-1.1-2.5-2.5
	c0,0,0,0,0,0l0,0v-6.2h29.5v-9h-29.5v-5v-1.2c0-1.4,1.1-2.5,2.5-2.5c0,0,0,0,0,0h34.7v-10.8h-39.3
	C167.5,131.2,163.6,135,163.6,139.7L163.6,139.7z M218.2,139.7v30.7c0,4.7,3.8,8.6,8.6,8.6h39.3v-10.8h-34.7c-1.4,0-2.5-1.1-2.5-2.5
	c0,0,0,0,0,0l0,0v-20.1v-1.2c0-1.4,1.1-2.5,2.5-2.5c0,0,0,0,0,0h34.7v-10.8h-39.3C222,131.2,218.2,135,218.2,139.7L218.2,139.7z
	 M54.5,139.7v39.4h10.8v-19.5h29.4v-9H65.3v-6.2c-0.1-1.2,0.8-2.4,2.1-2.5c0.1,0,0.2,0,0.4,0h34.8v-10.9H63.1
	C58.4,131.2,54.6,135,54.5,139.7z M109.1,139.7v39.4h10.8v-19.5h29.4v-9h-29.4v-6.2c-0.1-1.2,0.8-2.4,2.1-2.5c0.1,0,0.2,0,0.4,0H157
	v-10.9h-39.4C112.9,131.2,109.1,135,109.1,139.7L109.1,139.7z M429.5,139.7c0-4.7-3.8-8.5-8.5-8.6c0,0-0.1,0-0.1,0h-30.6
	c-4.7,0-8.6,3.8-8.6,8.6v39.4h10.7v-19.5h10.8l13.8,19.5h12.5l-13.8-19.4h5.2c4.7,0,8.6-3.8,8.6-8.5c0,0,0,0.9,0,0.9v-2.5l0,0
	L429.5,139.7z M418.8,147.6v0.6c0,1.4-1.1,2.5-2.5,2.5h-23.9V142h23.9c1.4,0,2.5,1.1,2.5,2.5v1.2L418.8,147.6z"/>
<polygon class="st1" points="254.8,42.6 242.2,36.3 214.8,22.6 174.7,42.6 187.3,49 214.8,35.2 214.8,35.2 242.2,49 "/>
<polygon class="st0" points="214.8,0 152,31.4 164.7,37.7 214.8,12.7 264.9,37.7 277.7,31.2 "/>
<polygon class="st1" points="290.2,73 290.2,60.3 277.5,66.7 214.8,98 139.4,60.3 139.4,73 214.8,110.7 "/>
<polygon class="st0" points="214.8,88.1 290.2,50.4 290.2,37.7 277.5,44 214.8,75.4 139.4,37.7 139.4,50.4 "/>
<rect y="184.3" class="st1" width="429.5" height="10.5"/>
<path class="st0" d="M320.7,131.1h-48V142h17c1.9,0,1.8,1,1.8,1.2v35.9h10.8v-35.9c0-0.5-0.1-1.2,1.8-1.2h16.7L320.7,131.1z"/>
</svg>
