<svg id="Warstwa_1" data-name="Warstwa 1" xmlns="http://www.w3.org/2000/svg" viewBox="0 0 1000 1000"><defs><style>.cls-1{fill:#0066b3;}.cls-1,.cls-2{fill-rule:evenodd;}.cls-2{fill:#00aeef;}</style></defs><g id="kolor"><path class="cls-1" d="M303.39,533.8l-13.29,136,123.16-.06,13.55-136.06-123.42.17Zm64.38,98.82L343,632.54l6.1-61.79,24.64,0Z"/><polygon class="cls-1" points="571.25 532.92 557.95 668.86 606.98 668.91 616.62 569.86 641.62 569.83 631.87 669 681.25 668.8 694.67 532.73 571.25 532.92"/><polygon class="cls-1" points="704.84 532.78 691.54 668.72 740.82 668.65 769.6 631.59 744.48 631.49 750.57 569.72 775.45 569.68 769.6 631.59 765.7 668.73 814.98 668.66 828.5 532.59 704.84 532.78"/><polygon class="cls-1" points="562.47 533.48 512.91 533.55 481.91 583.38 486.8 533.58 437.12 533.67 424.03 669.08 472.93 669 477.63 620.14 503.01 620.11 498.15 668.97 547.64 668.89 556.2 582.65 530.94 582.82 562.47 533.48"/><path class="cls-2" d="M451.88,387.37l-13.29,136,123.17-.06,13.55-136.07-123.43.18Zm64.39,98.82-24.75-.09,6.1-61.78,24.63,0Z"/><path class="cls-2" d="M443.3,387.45l-49.65.19L362.53,437.7l6.67-63.45c2.44-26.44-17-44.06-53.56-44,0,0,6.84,7.95,5.43,28.07-1.29,18.35-16.41,165.08-16.41,165.08l48.9-.08,4.71-48.84,25.37-.05-4.89,48.85,49.49-.06L436.82,437l-25.27.15Z"/><polygon class="cls-2" points="224.43 486.08 230.53 424.31 255.17 424.27 249.29 485.97 304.5 424.14 308.22 387.18 184.8 387.36 171.5 523.29 294.67 523.24 298.4 485.9 224.43 486.08"/></g></svg>