<svg width="600" height="117" viewBox="0 0 600 117" fill="none" xmlns="http://www.w3.org/2000/svg">
<g clip-path="url(#clip0)">
<path d="M38.2717 114.523H15.6857V58.2187H0.299683V39.8872H15.6851V26.8431C15.6851 11.3857 22.4901 0.299805 45.015 0.299805C49.779 0.299805 57.2583 1.26004 57.2583 1.26004V18.2818H49.4026C41.3982 18.2818 38.2729 20.7166 38.2729 27.4479V39.8872H56.9586L55.2947 58.2187H38.2723L38.2717 114.523ZM90.0959 38.4223C89.7668 38.4223 89.4282 38.4343 89.0931 38.4427C68.15 38.4427 58.568 54.1961 58.568 76.5586C58.568 104.729 70.9972 116.004 89.2567 116.004C99.7037 116.004 106.567 111.607 110.739 103.401V114.531H132.222V39.895H110.739V51.3729C107.333 43.9883 100.277 38.5098 90.0959 38.4223ZM95.5582 56.0585C104.354 56.0585 109.634 62.1939 109.634 72.6301L109.654 83.2892C109.654 90.3232 105.294 98.5524 95.5582 98.5524C80.5912 98.5524 80.991 82.3913 80.991 77.0087C80.991 58.9026 88.9654 56.0585 95.5582 56.0585ZM140.897 77.2167C140.897 68.1472 140.464 38.4708 179.127 38.4708C194.648 38.4708 201.128 43.4057 201.128 43.4057L195.919 59.5613C195.919 59.5613 189.447 55.9973 181.014 55.9973C170.212 55.9973 163.319 62.2592 163.319 73.2768L163.331 81.1769C163.331 91.7635 169.982 98.8305 181.036 98.8305C188.719 98.8305 195.8 95.2329 195.8 95.2329L200.996 111.051C200.996 111.051 195.07 116.017 179.236 116.017C142.422 116.017 140.898 89.3917 140.898 77.2167H140.897ZM327.088 38.4427C348.032 38.4427 357.765 54.1961 357.765 76.5586C357.765 104.729 345.335 116.004 327.076 116.004C316.629 116.004 308.906 111.607 304.734 103.401V114.531L283.522 114.522V2.56914L306.044 0.6049V50.3617C309.294 41.6566 319.977 38.4427 327.089 38.4427H327.088ZM320.774 56.0585C311.978 56.0585 306.044 62.1939 306.044 72.6301L306.023 83.2892C306.01 90.3232 310.132 98.5524 320.774 98.5524C335.741 98.5524 335.341 82.3913 335.341 77.0087C335.341 58.9026 327.367 56.0585 320.774 56.0585ZM240.206 38.5044C216.451 38.5044 203.911 51.4557 203.911 74.4714V78.7476C203.911 108.62 221.522 116.311 242.517 116.311C262.925 116.311 272.163 110.603 272.163 110.603L267.948 95.4019C267.948 95.4019 257.082 100.025 245.218 100.025C232.918 100.025 227.628 96.8902 226.273 85.07H273.963V72.8752C273.963 47.909 259.889 38.5038 240.205 38.5038L240.206 38.5044ZM240.778 53.7256C249.001 53.7256 254.329 58.7677 254.036 70.4614H226.314C226.795 58.154 232.54 53.7262 240.778 53.7262V53.7256ZM402.673 38.4019C378.279 38.4019 365.437 52.1486 365.437 76.7833C365.437 110.584 387.574 116.024 402.713 116.024C424.877 116.024 439.622 104.092 439.622 77.0902C439.622 48.9861 423.043 38.4019 402.673 38.4019V38.4019ZM402.366 56.1196C413.092 56.1196 417.342 64.1474 417.342 73.2852V81.1416C417.342 92.2113 411.395 98.6141 402.325 98.6141C393.842 98.6141 387.881 92.6249 387.881 81.1416V73.2852C387.881 61.0383 394.974 56.1196 402.366 56.1196V56.1196ZM484.49 38.4019C460.096 38.4019 447.254 52.1486 447.254 76.7833C447.254 110.584 469.391 116.024 484.53 116.024C506.693 116.024 521.439 104.092 521.439 77.0902C521.439 48.9861 504.859 38.4019 484.49 38.4019V38.4019ZM484.183 56.1196C494.909 56.1196 499.159 64.1474 499.159 73.2852V81.1416C499.159 92.2113 493.211 98.6141 484.142 98.6141C475.659 98.6141 469.698 92.6249 469.698 81.1416V73.2852C469.698 61.0383 476.791 56.1196 484.183 56.1196V56.1196ZM529.95 114.523V2.56914L552.537 0.6049V75.6433L574.946 39.8872H598.8L575.423 76.92L599.7 114.523H575.779L552.537 78.0109V114.523H529.95Z" fill="#1877F2"/>
</g>
<defs>
<clipPath id="clip0">
<rect width="600" height="116.61" fill="white"/>
</clipPath>
</defs>
</svg>
