<svg width="32" height="32" viewBox="0 0 32 32" fill="none" xmlns="http://www.w3.org/2000/svg">
<path d="M29.3333 0H2.66669C1.19625 0 0 1.19625 0 2.66669V29.3334C0 30.8038 1.19625 32 2.66669 32H14.9334V21.3333H10.6667V14.9333H14.9334V12.2666C14.9334 8.67356 17.7254 5.62931 21.2896 5.33488L27.2 5.33325V11.7332H21.8667C21.5728 11.7332 21.3334 11.9727 21.3334 12.2666V14.9333H26.6667V21.3333H21.3334V32H29.3334C30.8038 32 32 30.8038 32 29.3333V2.66669C32 1.19625 30.8038 0 29.3333 0Z" fill="white"/>
<path d="M25.6 15.9994H20.2667V12.2661C20.2667 11.384 20.9845 10.6661 21.8667 10.6661H26.1333V6.39941H21.3333C18.3621 6.64635 16 9.22398 16 12.2661V15.9994H11.7333V20.2661H16V31.9994H20.2667V20.2661H25.6V15.9994Z" fill="none"/>
</svg>
