<svg xmlns="http://www.w3.org/2000/svg" xmlns:xlink="http://www.w3.org/1999/xlink" viewBox="0 0 106 42.33"><defs><style>.cls-1{fill-rule:evenodd;fill:url(#Gradient_bez_nazwy_2);}</style><linearGradient id="Gradient_bez_nazwy_2" x1="48.96" y1="-6.75" x2="57.66" y2="98.89" gradientUnits="userSpaceOnUse"><stop offset="0.07" stop-color="#dcc98a"/><stop offset="0.48" stop-color="#cda053"/></linearGradient></defs><g id="Warstwa_2" data-name="Warstwa 2"><g id="Warstwa_1-2" data-name="Warstwa 1"><path class="cls-1" d="M0,0H29.47l.06,14.78H14.78V42.22L0,42.33V0ZM37.47,42.2h6V22.61h5.49v-4H43.43V4h6.21V0H37.47V42.2Zm15.36,0h6V0h-6V42.2Zm9.16,0H75.3v-4H68L74.77,4.63V0h-12V4h6L62,37.57V42.2Zm16.53,0h6V0h-6V42.2Zm9.81,0h5.86l.89-11.58h4.17l.9,11.58H106L101.65,0h-9L88.33,42.2Zm7.06-15.61L97,5.06h.31l1.62,21.53ZM18.55,18.66v8.86h3v4.7h-3v9.93H29.48V18.66Z"/></g></g></svg>