<svg width="32" height="32" viewBox="0 0 32 32" fill="none" xmlns="http://www.w3.org/2000/svg">
<g clip-path="url(#clip0)">
<path d="M31.9363 12.9385C31.2446 5.60086 25.0819 -0.00463833 17.7118 0.000174109C10.8415 -0.033638 4.93444 4.8608 3.69083 11.6177C3.8632 11.7267 4.01114 11.8703 4.12513 12.0394L7.00279 16.357C7.42804 16.9989 7.28816 17.8599 6.68167 18.3341L5.06569 19.5914C4.93731 19.688 4.89956 19.8644 4.97712 20.0051L5.10969 20.2474C5.87043 21.6405 6.85804 22.8972 8.03197 23.9656C9.1007 25.1398 10.3578 26.1277 11.7514 26.8885L11.9919 27.0205C12.1329 27.0981 12.3094 27.0604 12.4062 26.9319L13.6633 25.3159C14.1382 24.7105 14.9981 24.5706 15.6404 24.9943L19.9581 27.8731C20.1272 27.9869 20.2708 28.1346 20.3798 28.3068C27.621 26.9344 32.6278 20.2761 31.9363 12.9385ZM13.269 3.75669C10.5285 4.92024 8.34659 7.10197 7.18273 9.84231C7.09323 10.0536 6.88598 10.1909 6.65642 10.1909C6.57998 10.1908 6.50436 10.1752 6.43411 10.1452C6.29442 10.0862 6.18386 9.97412 6.12686 9.83362C6.06986 9.69312 6.07099 9.53569 6.13011 9.39606C8.09572 4.74043 12.6581 1.71434 17.7117 1.71447C18.0272 1.71447 18.2831 1.97028 18.2831 2.2859C18.2831 2.60146 18.0273 2.85733 17.7117 2.85733C16.1854 2.85433 14.6741 3.16026 13.269 3.75669ZM19.6952 17.0771C18.5454 17.8979 17.0099 17.9294 15.8274 17.1565C14.6449 16.3835 14.0575 14.9645 14.3478 13.582C14.6381 12.1994 15.7468 11.1365 17.1404 10.9046V5.14299C17.1404 4.82743 17.3962 4.57156 17.7118 4.57156C18.0274 4.57156 18.2832 4.82737 18.2832 5.14299V11.4286C18.2832 11.7442 18.0274 12 17.7118 12C16.4494 12 15.4261 13.0234 15.4261 14.2857C15.4261 15.5481 16.4495 16.5714 17.7118 16.5714C18.9741 16.5714 19.9975 15.548 19.9975 14.2857C19.9975 13.9701 20.2533 13.7143 20.5689 13.7143C20.8845 13.7143 21.1403 13.9701 21.1403 14.2857C21.1403 14.9971 20.9175 15.6907 20.5032 16.2691L22.9729 18.7388C23.1214 18.8823 23.181 19.0947 23.1287 19.2944C23.0764 19.4943 22.9204 19.6503 22.7206 19.7026C22.5207 19.7549 22.3083 19.6953 22.1649 19.5468L19.6952 17.0771ZM18.2832 14.2857C18.2824 14.3221 18.2784 14.3585 18.2712 14.3943C18.2559 14.4675 18.227 14.5373 18.1861 14.5999C18.1632 14.6343 18.1404 14.6628 18.1175 14.6914C18.0619 14.7417 17.9981 14.7823 17.929 14.8114C17.8603 14.8407 17.7865 14.8562 17.7119 14.8571C17.5605 14.8549 17.4157 14.7958 17.3062 14.6914C17.2833 14.6628 17.2605 14.6343 17.2376 14.5999C17.215 14.5708 17.1976 14.5379 17.1862 14.5028C17.1688 14.4688 17.1572 14.4321 17.1519 14.3943C17.1452 14.3584 17.1414 14.3221 17.1404 14.2857C17.1413 14.211 17.1569 14.1373 17.1861 14.0686C17.2151 13.9993 17.2557 13.9356 17.3061 13.88C17.4704 13.7179 17.7162 13.6705 17.929 13.76C17.9981 13.7891 18.0619 13.8297 18.1175 13.88C18.168 13.9356 18.2085 13.9994 18.2375 14.0686C18.2668 14.1373 18.2824 14.2111 18.2832 14.2857ZM26.5975 23.1708C25.452 24.3195 24.0949 25.2352 22.6009 25.8673C22.4129 25.9469 22.1967 25.9202 22.0337 25.7972C21.8708 25.6742 21.7858 25.4736 21.8109 25.2709C21.8359 25.0683 21.9672 24.8944 22.1552 24.8148C26.3885 23.0283 29.1402 18.8805 29.1403 14.2858C29.1403 13.9702 29.3961 13.7143 29.7117 13.7143C30.0273 13.7143 30.2832 13.9701 30.2832 14.2858C30.2853 17.6198 28.9589 20.8172 26.5975 23.1708Z" fill="white"/>
<path d="M19.3238 28.8241L15.0073 25.9458C14.8636 25.8511 14.6713 25.8824 14.5649 26.0178L13.3078 27.6338C12.8669 28.2106 12.0687 28.3748 11.4359 28.0189L11.2039 27.892C9.71338 27.0806 8.36833 26.0268 7.22391 24.7737C5.97149 23.6295 4.91794 22.2851 4.10626 20.7955L3.97882 20.5618C3.6242 19.9288 3.78826 19.1314 4.36394 18.6898L5.98049 17.4327C6.1158 17.3268 6.14686 17.1347 6.05192 16.9916L3.17427 12.6739C3.07783 12.5267 2.88259 12.4817 2.7314 12.5716L0.926296 13.6573C0.564363 13.8687 0.298178 14.2119 0.18343 14.615C-0.645123 17.6286 1.35142 21.74 5.80449 26.1932C10.2576 30.6463 14.3689 32.6416 17.3832 31.816C17.7863 31.701 18.1294 31.4349 18.3409 31.0731L19.4232 29.268C19.5148 29.1174 19.4709 28.9213 19.3238 28.8241Z" fill="white"/>
</g>
<defs>
<clipPath id="clip0">
<rect width="32" height="32" fill="white"/>
</clipPath>
</defs>
</svg>
