<svg width="110" height="24" xmlns="http://www.w3.org/2000/svg" aria-hidden="true" data-bbox="9.7 11.6 325.1 82.3" data-type="color" viewBox="9.7 11.6 325.1 82.3"><path fill="#073836" d="M89.3 93.4h-5.5V69.5h5.5v3.7c1.5-2.3 3.8-4.2 7.5-4.2 5.4 0 8.5 3.6 8.5 9.2v15.2h-5.5V79.8c0-3.7-1.9-5.8-5.1-5.8-3.2 0-5.4 2.2-5.4 5.9v13.5zM125.4 93.4v-2.9c-1.6 2-4.1 3.4-7.8 3.4-4.5 0-8.5-2.6-8.5-7.4v-.1c0-5.2 4.1-7.7 9.7-7.7 2.9 0 4.8.4 6.6 1v-.6c0-3.3-2.1-5.1-5.9-5.1-2.7 0-4.7.6-6.8 1.5l-1.5-4.4c2.6-1.2 5.2-2 9.1-2 7.1 0 10.5 3.7 10.5 10.1v14.2h-5.4zm.2-10.1c-1.4-.5-3.4-1-5.5-1-3.4 0-5.5 1.4-5.5 3.9v.1c0 2.3 2 3.5 4.6 3.5 3.6 0 6.3-2 6.3-5v-1.5zM169.3 69.5h5.5v23.9h-5.5v-3.7c-1.5 2.3-3.8 4.2-7.5 4.2-5.4 0-8.5-3.6-8.5-9.2V69.5h5.5v13.6c0 3.7 1.9 5.8 5.1 5.8 3.2 0 5.4-2.2 5.4-5.9V69.5zM186 93.4h-5.5V69.5h5.5v5.4c1.5-3.6 4.3-6 8.5-5.8v5.8h-.3c-4.8 0-8.2 3.1-8.2 9.5v9zM211.6 93.4v-2.9c-1.6 2-4.1 3.4-7.8 3.4-4.5 0-8.5-2.6-8.5-7.4v-.1c0-5.2 4.1-7.7 9.7-7.7 2.9 0 4.8.4 6.6 1v-.6c0-3.3-2.1-5.1-5.9-5.1-2.7 0-4.7.6-6.8 1.5l-1.5-4.4c2.6-1.2 5.2-2 9.1-2 7.1 0 10.5 3.7 10.5 10.1v14.2h-5.4zm.1-10.1c-1.4-.5-3.4-1-5.5-1-3.4 0-5.5 1.4-5.5 3.9v.1c0 2.3 2 3.5 4.6 3.5 3.6 0 6.3-2 6.3-5v-1.5zM9.7 12.5H23l7.9 26.3 8.8-26.4h10.8l8.8 26.4 7.9-26.3h13L65 58.2H54L44.9 32l-9.1 26.1h-11L9.7 12.5zM79.4 35.3v-.1c0-13 10.5-23.6 24.5-23.6S128.3 22 128.3 35v.1c0 13-10.5 23.6-24.5 23.6-14 .1-24.4-10.4-24.4-23.4zm36 0v-.1c0-6.5-4.7-12.3-11.7-12.3-6.9 0-11.5 5.6-11.5 12.1v.1c0 6.5 4.7 12.3 11.6 12.3 7 0 11.6-5.6 11.6-12.1zM131.7 35.3v-.1c0-13 10.5-23.6 24.5-23.6S180.5 22 180.5 35v.1c0 13-10.5 23.6-24.5 23.6-14 .1-24.3-10.4-24.3-23.4zm36 0v-.1c0-6.5-4.7-12.3-11.7-12.3-6.9 0-11.5 5.6-11.5 12.1v.1c0 6.5 4.7 12.3 11.6 12.3 7 0 11.6-5.6 11.6-12.1zM185.5 12.5H203c16.2 0 25.6 9.3 25.6 22.4v.1c0 13.1-9.5 22.8-25.9 22.8h-17.2V12.5zm17.7 34.2c7.5 0 12.5-4.1 12.5-11.5v-.1c0-7.3-5-11.5-12.5-11.5h-5.1v23.1h5.1z" data-color="1"/><path fill="#4eae49" d="M329.2 73.5c3.6-6 5.6-13.1 5.6-20.6 0-22.3-18.2-40.5-40.5-40.5s-40.5 18.2-40.5 40.5 18.2 40.5 40.5 40.5c14.6 0 27.5-7.8 34.6-19.4.2-.2.3-.3.3-.5zm.7-20.6c0 6.2-1.6 12-4.4 17.1h-41.3l17.9-44.4 15 33.7h-15.4c-1.4 0-2.5 1.1-2.5 2.5s1.1 2.5 2.5 2.5l19.2-.1c.8 0 1.6-.4 2.1-1.1.5-.7.5-1.6.2-2.4L304.6 19c14.6 4.4 25.3 17.9 25.3 33.9zm-35.5-35.4c1.9 0 3.7.1 5.5.4-.1.1-.2.2-.2.4l-11.4 28.4-5.5-10.3c-.4-.8-1.3-1.4-2.3-1.3-1 0-1.8.6-2.2 1.5l-15.1 33.2c-2.7-5-4.2-10.7-4.2-16.8-.1-19.6 15.8-35.5 35.4-35.5zm0 70.9c-11.4 0-21.5-5.4-28-13.7l14.3-31.5 5.1 9.6-7.6 18.8c-.3.8-.2 1.6.2 2.3.5.7 1.2 1.1 2.1 1.1h41.6c-6.5 8.2-16.5 13.4-27.7 13.4z" data-color="2"/><path fill="#073836" d="M142.7 65.8c-1.9-.6-3.8-1.4-5.5-2.4v6h-3v4.7h3v12.6c0 5.3 2.9 7 6.9 7 2 0 3.6-.5 4.9-1.2V88c-1.1.5-2.2.8-3.4.8-1.9 0-2.9-.9-2.9-3V74.2h6.4v-4.7h-6.4v-3.7zM222.8 64.7v28.7h5.5v-32c-1.7 1.4-3.6 2.5-5.5 3.3z" data-color="1"/></svg>