<svg preserveAspectRatio="xMidYMid meet" data-bbox="0 0 555.72 112.9" viewBox="0 0 555.72 112.9" xmlns="http://www.w3.org/2000/svg" data-type="color" role="presentation" aria-hidden="true" aria-label="">
    <g>
        <path fill="#0d3a38" d="M555.72 32.06v48.78c0 17.706-14.354 32.06-32.06 32.06H32.06C14.354 112.9 0 98.546 0 80.84V32.06C0 14.354 14.354 0 32.06 0h491.6c17.706 0 32.06 14.354 32.06 32.06z" data-color="1"></path>
        <path d="M86.96 75.72a39.01 39.01 0 0 0 5.45-19.9c0-21.61-17.58-39.19-39.19-39.19S14.03 34.21 14.03 55.82s17.58 39.19 39.19 39.19c14.16 0 26.58-7.55 33.47-18.82.11-.15.2-.3.28-.47m.6-19.9c0 5.98-1.54 11.61-4.24 16.52H43.38l17.31-42.96L75.2 62.03l-14.92.05c-1.34 0-2.42 1.09-2.42 2.43s1.09 2.42 2.42 2.42 18.64-.06 18.64-.06a2.426 2.426 0 0 0 2.21-3.41l-18-40.52c14.12 4.26 24.44 17.39 24.44 32.88M53.22 21.48c1.81 0 3.58.14 5.32.41-.08.12-.16.23-.22.37L47.24 49.74l-5.33-10.01c-.43-.82-1.3-1.31-2.22-1.28-.92.03-1.75.58-2.13 1.42L22.95 72.05a34.17 34.17 0 0 1-4.08-16.22c0-18.94 15.41-34.34 34.34-34.34m0 68.69c-11.02 0-20.83-5.22-27.12-13.31l13.85-30.5 4.93 9.26-7.35 18.25a2.424 2.424 0 0 0 2.25 3.33h40.3c-6.3 7.9-15.99 12.97-26.86 12.97" fill="#40b38f" data-color="2"></path>
        <path d="M121.77 26.97h9.25l17.66 43.48h-10.21l-3.48-9.13h-17.54l-3.54 9.13h-9.79l17.66-43.48Zm-1.38 26.85h11.71l-1.8-4.87c-1.26-3.42-2.82-7.75-3.96-11.05h-.12c-1.14 3.3-2.7 7.63-4.08 11.29l-1.74 4.62Z" fill="#40b38f" data-color="2"></path>
        <path d="M187.35 67.51c-3.9 2.16-9.37 3.6-14.77 3.6-13.93 0-23.72-9.43-23.72-22.22s9.91-22.58 23.78-22.58c5.35 0 9.97 1.44 13.33 3.3v9.61c-3.66-2.52-8.41-4.32-13.15-4.32-8.77 0-14.41 6.19-14.41 13.93s5.41 13.93 14.35 13.93c1.98 0 3.9-.36 5.35-.96v-6.55h-7.57v-7.93h16.82V67.5Z" fill="#40b38f" data-color="2"></path>
        <path d="M210.47 51.47c-2.16-3.06-4.32-6.25-6.37-9.31l-.12.06c.06 3.12.12 7.21.12 10.81v17.42h-9.19V26.97h9.19l12.91 18.38 12.91-18.38h9.07v43.48h-9.55V53.03c0-3.6.06-7.69.12-10.81l-.12-.06c-2.04 3.06-4.2 6.25-6.37 9.31l-6.31 8.95-6.31-8.95Z" fill="#40b38f" data-color="2"></path>
        <path d="M261.17 26.97h12.91c5.17 0 9.49.48 12.91 2.28 3.78 1.98 7.03 5.71 7.03 11.59 0 5.34-2.58 9.19-6.25 11.35-3.36 1.98-7.69 2.7-14.05 2.7h-3v15.56h-9.55V26.97Zm13.03 20.18c3.78 0 5.95-.18 7.57-1.08 1.74-.96 2.7-2.58 2.7-4.74 0-2.46-1.08-4.21-3.06-5.11-1.74-.78-4.08-.9-7.45-.9h-3.24v11.83h3.48Z" fill="#40b38f" data-color="2"></path>
        <path d="M310.65 26.97h9.25l17.66 43.48h-10.21l-3.48-9.13h-17.54l-3.54 9.13H293l17.66-43.48Zm-1.38 26.85h11.71l-1.8-4.87c-1.26-3.42-2.82-7.75-3.96-11.05h-.12c-1.14 3.3-2.7 7.63-4.08 11.29l-1.74 4.62Z" fill="#40b38f" data-color="2"></path>
        <path d="M341.7 26.97h13.63c5.17 0 10.03.72 13.51 2.88 3.18 1.98 5.23 5.23 5.23 10.21 0 5.59-3.06 10.15-8.83 12.01l12.25 18.38H366.5l-10.99-17.18h-4.26v17.18h-9.55V26.97Zm14.35 19.16c2.58 0 4.56-.3 6.01-1.02 1.62-.84 2.46-2.28 2.46-4.38s-.72-3.36-2.46-4.26c-1.5-.78-3.84-1.14-7.15-1.14h-3.66v10.81h4.8Z" fill="#40b38f" data-color="2"></path>
        <path d="M391.91 35.32h-14.05v-8.35h37.66v8.35h-14.05v35.13h-9.55V35.32Z" fill="#40b38f" data-color="2"></path>
        <path d="M437.74 52.91c-2.82-3.78-5.46-7.45-8.17-11.23l-.12.06c.06 4.14.12 8.35.12 12.55v16.16h-9.19V26.97h9.01l13.03 17.54c2.82 3.78 5.46 7.45 8.17 11.23l.12-.06c-.06-4.14-.12-8.35-.12-12.55V26.97h9.19v43.48h-9.01l-13.03-17.54Z" fill="#40b38f" data-color="2"></path>
        <path d="M467.71 26.97h26.85v8.35h-17.3v8.53h14.89v7.93h-14.89v10.33h17.96v8.35h-27.51V26.97Z" fill="#40b38f" data-color="2"></path>
        <path d="M501.4 26.97h13.63c5.16 0 10.03.72 13.51 2.88 3.18 1.98 5.23 5.23 5.23 10.21 0 5.59-3.06 10.15-8.83 12.01l12.25 18.38H526.2l-10.99-17.18h-4.26v17.18h-9.55V26.97Zm14.35 19.16c2.58 0 4.56-.3 6.01-1.02 1.62-.84 2.46-2.28 2.46-4.38s-.72-3.36-2.46-4.26c-1.5-.78-3.84-1.14-7.15-1.14h-3.66v10.81h4.8Z" fill="#40b38f" data-color="2"></path>
        <path d="M114.91 93.22h-2.06l-1.05-2.7h-4.75l-1.07 2.7h-1.99l4.52-11.03h1.89l4.51 11.03Zm-7.23-4.28h3.5l-.64-1.66c-.38-.99-.75-1.96-1.1-2.95h-.03c-.37 1.02-.72 1.96-1.1 2.95l-.64 1.66Z" fill="#ffffff" data-color="3"></path>
        <path d="M115.74 87.98v-5.79h1.93v5.67c0 1.29.11 2.04.43 2.6.37.64 1.05 1.16 2.33 1.16 1.16 0 1.86-.43 2.25-1.11.35-.59.44-1.42.44-2.62v-5.7h1.87v5.67c0 1.63-.17 2.85-.79 3.78-.76 1.13-2.15 1.75-3.85 1.75s-3.11-.67-3.84-1.78c-.61-.91-.78-2.13-.78-3.62Z" fill="#ffffff" data-color="3"></path>
        <path d="M129.88 83.91h-3.61v-1.72h9.18v1.72h-3.64v9.3h-1.93v-9.3Z" fill="#ffffff" data-color="3"></path>
        <path d="M136.85 82.19h1.93v4.45h5.38v-4.45h1.93v11.03h-1.93v-4.86h-5.38v4.86h-1.93V82.19Z" fill="#ffffff" data-color="3"></path>
        <path d="M147.78 87.71c0-3.21 2.44-5.68 5.68-5.68s5.68 2.47 5.68 5.68-2.44 5.68-5.68 5.68-5.68-2.47-5.68-5.68Zm9.43 0c0-2.19-1.6-3.91-3.75-3.91s-3.75 1.72-3.75 3.91 1.6 3.91 3.75 3.91 3.75-1.72 3.75-3.91Z" fill="#ffffff" data-color="3"></path>
        <path d="M160.83 82.19h3.21c1.13 0 2.22.08 3.09.55.9.49 1.58 1.37 1.58 2.68 0 1.49-.9 2.65-2.45 3.03l3.32 4.77h-2.27l-3.08-4.55h-1.48v4.55h-1.93V82.19Zm3.47 4.98c.88 0 1.48-.12 1.92-.44.35-.26.56-.64.56-1.19 0-.66-.3-1.07-.79-1.33s-1.1-.3-2.06-.3h-1.17v3.26h1.54Z" fill="#ffffff" data-color="3"></path>
        <path d="M170.72 82.19h1.93v11.03h-1.93V82.19Z" fill="#ffffff" data-color="3"></path>
        <path d="M174.72 90.55c1.1.76 2.45 1.1 3.37 1.1 1.11 0 1.89-.47 1.89-1.48 0-1.22-1.16-1.39-2.59-1.81-1.58-.49-2.98-1.19-2.98-3.12s1.48-3.21 3.72-3.21c1.07 0 2.35.27 3.27.82v1.95c-1.1-.72-2.39-1.04-3.29-1.04-1.04 0-1.77.41-1.77 1.34 0 1.16 1.16 1.31 2.48 1.72 1.63.5 3.09 1.22 3.09 3.24s-1.54 3.32-3.84 3.32c-1.08 0-2.38-.27-3.35-.81v-2.03Z" fill="#ffffff" data-color="3"></path>
        <path d="M183.55 82.19h6.58v1.72h-4.64v2.74h4.04v1.64h-4.04v3.2h4.8v1.72h-6.73V82.18Z" fill="#ffffff" data-color="3"></path>
        <path d="M192.02 82.19h3.06c1.71 0 3.14.27 4.26 1 1.46.94 2.28 2.57 2.28 4.48 0 1.8-.73 3.35-2.01 4.31-1.14.87-2.66 1.23-4.78 1.23h-2.82V82.18Zm2.98 9.3c1.45 0 2.48-.21 3.27-.79.85-.62 1.42-1.69 1.42-3.02s-.61-2.45-1.52-3.08c-.87-.59-1.98-.7-3.18-.7h-1.04v7.58H195Z" fill="#ffffff" data-color="3"></path>
        <path d="M206.92 82.19h1.87l3.59 5.13 3.59-5.13h1.84v11.03h-1.93v-5.45c0-.84 0-1.63.02-2.39h-.03c-.46.69-.94 1.37-1.46 2.12l-2.07 2.95-2.07-2.95c-.52-.75-1-1.43-1.46-2.13h-.03c.02.78.02 1.57.02 2.41v5.45h-1.87V82.2Z" fill="#ffffff" data-color="3"></path>
        <path d="M219.5 87.71c0-3.21 2.44-5.68 5.68-5.68s5.68 2.47 5.68 5.68-2.44 5.68-5.68 5.68-5.68-2.47-5.68-5.68Zm9.43 0c0-2.19-1.6-3.91-3.75-3.91s-3.75 1.72-3.75 3.91 1.6 3.91 3.75 3.91 3.75-1.72 3.75-3.91Z" fill="#ffffff" data-color="3"></path>
        <path d="M232.53 93.22V82.19h1.83l3.99 5.31c.69.91 1.33 1.78 1.96 2.67h.03c-.03-1.05-.03-2.18-.03-3.35v-4.63h1.87v11.03h-1.83l-3.99-5.31c-.69-.91-1.32-1.78-1.96-2.67h-.03c.03 1.05.03 2.18.03 3.35v4.63h-1.87Z" fill="#ffffff" data-color="3"></path>
        <path d="M247.18 83.91h-3.61v-1.72h9.18v1.72h-3.64v9.3h-1.93v-9.3Z" fill="#ffffff" data-color="3"></path>
        <path d="M262.65 93.22h-2.06l-1.05-2.7h-4.75l-1.07 2.7h-1.99l4.52-11.03h1.89l4.51 11.03Zm-7.23-4.28h3.5l-.64-1.66c-.38-.99-.75-1.96-1.1-2.95h-.03c-.37 1.02-.72 1.96-1.1 2.95l-.64 1.66Z" fill="#ffffff" data-color="3"></path>
        <path d="M268.78 82.03c1.4 0 2.56.4 3.38.88v2.03c-.9-.69-2.12-1.16-3.37-1.16-2.41 0-4 1.75-4 3.94s1.51 3.94 4.02 3.94c.67 0 1.31-.14 1.8-.38v-2.12h-2.19v-1.64h4.1v4.84c-.99.61-2.39 1.02-3.79 1.02-3.4 0-5.86-2.38-5.86-5.65s2.45-5.71 5.92-5.71Z" fill="#ffffff" data-color="3"></path>
        <path d="M274.61 82.19h6.58v1.72h-4.64v2.74h4.04v1.64h-4.04v3.2h4.8v1.72h-6.73V82.18Z" fill="#ffffff" data-color="3"></path>
        <path d="M289.48 83.91h-3.61v-1.72h9.18v1.72h-3.64v9.3h-1.93v-9.3Z" fill="#ffffff" data-color="3"></path>
        <path d="M296.45 82.19h6.58v1.72h-4.64v2.74h4.04v1.64h-4.04v3.2h4.8v1.72h-6.73V82.18Z" fill="#ffffff" data-color="3"></path>
        <path d="M314.76 93.22h-2.06l-1.05-2.7h-4.75l-1.07 2.7h-1.99l4.52-11.03h1.89l4.51 11.03Zm-7.23-4.28h3.5l-.64-1.66c-.38-.99-.75-1.96-1.1-2.95h-.03c-.37 1.02-.72 1.96-1.1 2.95l-.64 1.66Z" fill="#ffffff" data-color="3"></path>
        <path d="M315.95 82.19h1.87l3.59 5.13 3.59-5.13h1.84v11.03h-1.93v-5.45c0-.84 0-1.63.02-2.39h-.03c-.46.69-.94 1.37-1.46 2.12l-2.07 2.95-2.07-2.95c-.52-.75-1-1.43-1.46-2.13h-.03c.02.78.02 1.57.02 2.41v5.45h-1.87V82.2Z" fill="#ffffff" data-color="3"></path>
        <path d="M336.95 81.62h1.45l-5.13 12.18h-1.45l5.13-12.18Z" fill="#ffffff" data-color="3"></path>
        <path d="M348.71 82.03c1.13 0 2.21.27 3.08.73v2.01c-.81-.58-1.93-.99-3.08-.99-2.33 0-3.94 1.69-3.94 3.93s1.6 3.91 4.05 3.91c1.17 0 2.25-.4 3.14-1.07v2.04c-.91.53-2.1.79-3.23.79-3.46 0-5.89-2.44-5.89-5.65s2.38-5.71 5.88-5.71Z" fill="#ffffff" data-color="3"></path>
        <path d="M353.74 82.19h6.58v1.72h-4.64v2.74h4.04v1.64h-4.04v3.2h4.8v1.72h-6.73V82.18Z" fill="#ffffff" data-color="3"></path>
        <path d="M362.2 82.19h3.21c1.13 0 2.22.08 3.09.55.9.49 1.58 1.37 1.58 2.68 0 1.49-.9 2.65-2.45 3.03l3.32 4.77h-2.27l-3.08-4.55h-1.48v4.55h-1.93V82.19Zm3.47 4.98c.88 0 1.48-.12 1.92-.44.35-.26.56-.64.56-1.19 0-.66-.3-1.07-.79-1.33s-1.1-.3-2.06-.3h-1.17v3.26h1.54Z" fill="#ffffff" data-color="3"></path>
        <path d="M374.85 83.91h-3.61v-1.72h9.18v1.72h-3.64v9.3h-1.93v-9.3Z" fill="#ffffff" data-color="3"></path>
        <path d="M381.82 82.19h1.93v11.03h-1.93V82.19Z" fill="#ffffff" data-color="3"></path>
        <path d="M385.99 82.19h6.75v1.72h-4.81v2.95h4.19v1.65h-4.19v4.71H386V82.19Z" fill="#ffffff" data-color="3"></path>
        <path d="m397.58 88.24-4.26-6.05h2.25l1.6 2.33c.49.72.96 1.42 1.39 2.07h.03c.43-.66.91-1.39 1.4-2.1l1.57-2.3h2.18l-4.22 6.03v5h-1.93v-4.98Z" fill="#ffffff" data-color="3"></path>
    </g>
</svg>