<svg width="32" height="32" viewBox="0 0 32 32" fill="none" xmlns="http://www.w3.org/2000/svg">
<g clip-path="url(#clip0)">
<path d="M31.3782 25.4451L27.8307 23.0799L24.677 20.9779C24.0684 20.5729 23.2505 20.7057 22.8012 21.2824L20.8498 23.7911C20.4306 24.3355 19.6765 24.4919 19.0754 24.1591C17.7513 23.4225 16.1855 22.729 12.7307 19.2698C9.27585 15.8105 8.57792 14.2491 7.84137 12.925C7.50856 12.3239 7.66499 11.5699 8.20936 11.1507L10.718 9.19933C11.2947 8.75009 11.4275 7.93216 11.0226 7.32348L8.9851 4.26695L6.55532 0.622244C6.14176 0.00187627 5.3139 -0.184372 4.67453 0.199061L1.87231 1.88017C1.11501 2.32635 0.558326 3.04684 0.317579 3.89227C-0.448724 6.68617 -0.603222 12.8494 9.27416 22.7268C19.1515 32.6042 25.3142 32.4492 28.1081 31.6828C28.9536 31.4421 29.674 30.8855 30.1202 30.1281L31.8013 27.3259C32.1848 26.6865 31.9986 25.8587 31.3782 25.4451Z" fill="white"/>
<path d="M18.2066 4.96573C23.3842 4.97148 27.5801 9.16731 27.5858 14.3449C27.5858 14.6496 27.8328 14.8967 28.1375 14.8967C28.4422 14.8967 28.6893 14.6497 28.6893 14.3449C28.6829 8.55819 23.9934 3.86868 18.2067 3.8623C17.902 3.8623 17.6549 4.1093 17.6549 4.41405C17.6549 4.71867 17.9019 4.96573 18.2066 4.96573Z" fill="white"/>
<path d="M18.2066 8.27536C21.5568 8.2793 24.2716 10.9941 24.2755 14.3442C24.2755 14.6489 24.5225 14.896 24.8272 14.896C25.1319 14.896 25.379 14.649 25.379 14.3442C25.3744 10.385 22.166 7.17644 18.2066 7.17188C17.902 7.17188 17.6549 7.41887 17.6549 7.72362C17.6549 8.02837 17.9019 8.27536 18.2066 8.27536Z" fill="white"/>
<path d="M18.2066 11.5858C19.7294 11.5877 20.9634 12.8216 20.9652 14.3444C20.9652 14.6491 21.2122 14.8962 21.5169 14.8962C21.8216 14.8962 22.0687 14.6492 22.0687 14.3444C22.0662 12.2125 20.3386 10.4849 18.2067 10.4824C17.902 10.4824 17.6549 10.7294 17.6549 11.0342C17.6549 11.3388 17.9019 11.5858 18.2066 11.5858Z" fill="white"/>
</g>
<defs>
<clipPath id="clip0">
<rect width="32" height="32" fill="white"/>
</clipPath>
</defs>
</svg>
