<svg width="32" height="32" viewBox="0 0 32 32" fill="none" xmlns="http://www.w3.org/2000/svg">
<path d="M31.4286 4H0.571437C0.255812 4 0 4.25581 0 4.57144V27.4286C0 27.7442 0.255812 28 0.571437 28H31.4286C31.7441 28 32 27.7442 32 27.4286V4.57144C32 4.25581 31.7442 4 31.4286 4ZM10.132 18.104L2.132 26.6754C1.99413 26.8301 1.78325 26.8981 1.581 26.8529C1.37875 26.8078 1.21675 26.6567 1.15769 26.458C1.09863 26.2593 1.15181 26.0443 1.29656 25.896L9.29656 17.3246C9.43444 17.1699 9.64531 17.1019 9.84756 17.1471C10.0498 17.1922 10.2118 17.3433 10.2709 17.542C10.3299 17.7407 10.2767 17.9557 10.132 18.104ZM30.6754 26.7034C30.4447 26.9186 30.0833 26.9061 29.868 26.6754L21.868 18.104C21.7232 17.9557 21.6701 17.7407 21.7291 17.542C21.7882 17.3433 21.9501 17.1923 22.1524 17.1471C22.3547 17.1019 22.5656 17.1698 22.7034 17.3246L30.7034 25.896C30.9186 26.1267 30.9061 26.4882 30.6754 26.7034ZM30.6531 6.152L17.4703 17.2257C17.0589 17.5724 16.5381 17.7624 16 17.7623C15.4619 17.7624 14.9412 17.5724 14.5297 17.2257L1.34687 6.152C1.1905 6.02075 1.116 5.816 1.1515 5.61494C1.187 5.41387 1.32706 5.247 1.51894 5.17725C1.71081 5.10744 1.92537 5.14531 2.08175 5.27656L15.2646 16.3509C15.6897 16.7083 16.3103 16.7083 16.7355 16.3509L29.9183 5.27656C30.1601 5.07363 30.5205 5.10513 30.7234 5.34688C30.9264 5.58863 30.8949 5.94906 30.6531 6.152Z" fill="white"/>
</svg>
