<svg width="32" height="32" viewBox="0 0 32 32" fill="none" xmlns="http://www.w3.org/2000/svg">
<g clip-path="url(#clip0)">
<path d="M11.0374 21.6627C12.4556 23.6585 13.8372 25.4048 14.7457 26.5195C14.9434 26.7652 15.128 26.9875 15.296 27.1898L15.5675 27.5183C15.6796 27.6404 15.8381 27.7094 16.0039 27.7083C16.1696 27.7072 16.3272 27.6361 16.4377 27.5126L16.704 27.1897C16.872 26.9874 17.0566 26.7652 17.252 26.5223C18.1634 25.4064 19.5444 23.6602 20.9627 21.6655C22.3321 19.775 23.5647 17.7891 24.651 15.7229C25.7366 13.5905 26.2852 11.8626 26.2852 10.5889C26.2766 7.86741 25.1909 5.25999 23.2654 3.33672L23.2568 3.32928L23.2517 3.32415C21.3259 1.40032 18.7219 0.309319 16 0.286133C13.2708 0.286133 10.6535 1.37082 8.72439 3.30141C6.79224 5.23367 5.70924 7.85591 5.71487 10.5884C5.71487 11.8621 6.26452 13.59 7.34965 15.7236C8.43584 17.7885 9.66827 19.7733 11.0374 21.6627ZM11.9596 5.95951C13.0289 4.88451 14.4838 4.28185 16 4.28591C16.3155 4.28591 16.5714 4.54171 16.5714 4.85732C16.5714 5.17287 16.3156 5.42873 16 5.42873C13.8192 5.42879 11.9421 6.96939 11.5168 9.10828C11.0914 11.2472 12.2362 13.3887 14.251 14.2232C16.2657 15.0576 18.5895 14.3527 19.801 12.5394C21.0126 10.7261 20.7745 8.30951 19.2324 6.76753C19.0838 6.62404 19.0243 6.41161 19.0766 6.21181C19.1289 6.01201 19.2849 5.85602 19.4847 5.80371C19.6845 5.7514 19.8969 5.81102 20.0404 5.95951C21.6746 7.59367 22.1635 10.0513 21.2791 12.1865C20.3947 14.3217 18.3111 15.7139 16.0001 15.7139C13.689 15.7139 11.6054 14.3217 10.721 12.1865C9.83651 10.0514 10.3254 7.59367 11.9596 5.95951Z" fill="white"/>
<path d="M31.93 30.8855L28.4148 24.6002C28.3002 24.4011 28.0862 24.2804 27.8565 24.2853H20.4569C19.561 25.4738 18.7427 26.4983 18.1387 27.2406C18.001 27.412 17.877 27.5612 17.7507 27.7137H20.5711C20.8867 27.7137 21.1426 27.9695 21.1426 28.2851C21.1426 28.6007 20.8868 28.8565 20.5711 28.8565H16.0154H16H15.9845H11.4288C11.1133 28.8565 10.8574 28.6007 10.8574 28.2851C10.8574 27.9696 11.1132 27.7137 11.4288 27.7137H14.2487C14.1224 27.5612 13.9978 27.4108 13.8578 27.2377C13.2533 26.4978 12.4385 25.4738 11.5431 24.2853H4.14349C3.91512 24.28 3.70176 24.399 3.58639 24.5962L0.0711462 30.8815C-0.0248486 31.0433 -0.0235362 31.245 0.0745835 31.4055C0.190327 31.6009 0.402441 31.7186 0.629428 31.7135H31.3706C31.5972 31.7191 31.8092 31.6022 31.9255 31.4078C32.0233 31.2479 32.0251 31.0471 31.93 30.8855ZM8.00046 30.5707H3.42927C3.11373 30.5707 2.85787 30.3149 2.85787 29.9993C2.85787 29.6837 3.11367 29.4279 3.42927 29.4279H8.00046C8.31601 29.4279 8.57187 29.6837 8.57187 29.9993C8.57187 30.3149 8.31601 30.5707 8.00046 30.5707ZM9.61862 28.0308C9.5345 28.1569 9.40376 28.2444 9.25514 28.2741C9.10653 28.3038 8.95216 28.2732 8.82611 28.1891L7.25763 27.1423H5.14343C4.82789 27.1423 4.57202 26.8865 4.57202 26.5709C4.57202 26.2553 4.82782 25.9995 5.14343 25.9995H7.42899C7.5418 25.9997 7.65211 26.033 7.7461 26.0955L9.46032 27.2383C9.58644 27.3224 9.67393 27.4532 9.70362 27.6018C9.73337 27.7504 9.70274 27.9048 9.61862 28.0308ZM22.8568 28.2851C22.6049 28.2854 22.3825 28.1207 22.3093 27.8796C22.2361 27.6386 22.3295 27.378 22.5391 27.2383L24.2533 26.0955C24.3475 26.0329 24.458 25.9995 24.571 25.9995H26.8566C27.1721 25.9995 27.428 26.2553 27.428 26.5709C27.428 26.8864 27.1722 27.1423 26.8566 27.1423H24.7424L23.1721 28.1891C23.0788 28.2514 22.9691 28.2848 22.8568 28.2851ZM28.5707 30.5707H23.9995C23.684 30.5707 23.4281 30.3149 23.4281 29.9993C23.4281 29.6837 23.6839 29.4279 23.9995 29.4279H28.5707C28.8863 29.4279 29.1421 29.6837 29.1421 29.9993C29.1421 30.3149 28.8863 30.5707 28.5707 30.5707Z" fill="white"/>
</g>
<defs>
<clipPath id="clip0">
<rect width="32" height="32" fill="white"/>
</clipPath>
</defs>
</svg>
