<svg width="206.61" height="32" xmlns="http://www.w3.org/2000/svg" aria-hidden="true" data-bbox="21.7 21.2 395.2 53.7" data-type="color" viewBox="21.7 21.2 395.2 53.7"><g fill="#083936"><path d="M21.7 21.8h8.2l4.9 16.1 5.4-16.2h6.6l5.4 16.2 4.9-16.1h8l-9.3 28h-6.7l-5.6-16-5.6 16H31l-9.3-28zM64.4 35.8c0-8.1 6.4-14.6 15-14.6s15 6.4 15 14.4v.1c0 8-6.4 14.5-15 14.5s-15-6.4-15-14.4zm22.2 0c0-4.1-2.9-7.6-7.2-7.6-4.2 0-7 3.4-7 7.4v.1c0 4 2.9 7.5 7.1 7.5 4.2 0 7.1-3.4 7.1-7.4zM96.5 35.8c0-8.1 6.4-14.6 15-14.6s15 6.4 15 14.4v.1c0 8-6.4 14.5-15 14.5s-15-6.4-15-14.4zm22.1 0c0-4.1-2.9-7.6-7.2-7.6-4.2 0-7 3.4-7 7.4v.1c0 4 2.9 7.5 7.1 7.5 4.3 0 7.1-3.4 7.1-7.4zM129.5 21.8h10.7c9.9 0 15.7 5.7 15.7 13.8v.1c0 8-5.8 14-15.9 14h-10.6V21.8zm10.9 21c4.6 0 7.7-2.5 7.7-7v-.1c0-4.5-3.1-7-7.7-7h-3.1v14.2h3.1zM165.1 36.3c0-8.2 6.4-14.5 15-14.5 4.9 0 8.3 1.5 11.3 4.1l-4.5 5.4c-2-1.7-4-2.6-6.7-2.6-4 0-7.1 3.4-7.1 7.6v.1c0 4.5 3.1 7.7 7.6 7.7 1.9 0 3.3-.4 4.5-1.2v-3.4h-5.5v-5.6h12.8v12.5c-2.9 2.4-7 4.3-12.1 4.3-8.9 0-15.3-6-15.3-14.4zM195.6 22.3h7.7v21.1h9.9l-2.8 6.8h-14.8V22.3zM225.5 22.1h7.4l11.8 28h-8.3l-2-5h-10.7l-2 5h-8.1l11.9-28zm6.8 17.1-3.1-7.9-3.1 7.9h6.2zM244.9 46l4.3-5.1c2.7 2.2 5.8 3.3 9 3.3 2.1 0 3.2-.7 3.2-1.9v-.1c0-1.2-.9-1.8-4.7-2.7-5.9-1.4-10.5-3-10.5-8.7v-.1c0-5.2 4.1-8.9 10.8-8.9 4.7 0 8.4 1.3 11.4 3.7l-3.9 5.4c-2.5-1.8-5.3-2.7-7.8-2.7-1.9 0-2.8.8-2.8 1.8v.1c0 1.3 1 1.8 4.8 2.7 6.4 1.4 10.4 3.5 10.4 8.7v.1c0 5.7-4.5 9.1-11.2 9.1-4.9-.1-9.6-1.6-13-4.7zM269.4 46l4.3-5.1c2.7 2.2 5.8 3.3 9 3.3 2.1 0 3.2-.7 3.2-1.9v-.1c0-1.2-.9-1.8-4.7-2.7-5.9-1.4-10.5-3-10.5-8.7v-.1c0-5.2 4.1-8.9 10.8-8.9 4.7 0 8.4 1.3 11.4 3.7l-3.9 5.4c-2.5-1.8-5.3-2.7-7.8-2.7-1.9 0-2.8.8-2.8 1.8v.1c0 1.3 1 1.8 4.8 2.7 6.4 1.4 10.4 3.5 10.4 8.7v.1c0 5.7-4.5 9.1-11.2 9.1-4.9-.1-9.5-1.6-13-4.7zM175.7 74c-1 .6-2.3.8-3.5.8-3.6 0-6.2-2.5-6.2-5.8 0-3.5 2.8-5.9 6.3-5.9 1.2 0 2.3.3 3.2.7v2.7c-1-.6-2.1-1-3.2-1-2.2 0-3.6 1.5-3.6 3.5s1.5 3.4 3.7 3.4c1.2 0 2.4-.4 3.3-1.1V74zM184.2 63.1c3.5 0 6.1 2.6 6.1 5.9 0 3.3-2.6 5.9-6.1 5.9-3.5 0-6.1-2.6-6.1-5.9 0-3.3 2.6-5.9 6.1-5.9zm0 9.3c1.9 0 3.3-1.5 3.3-3.4s-1.4-3.4-3.3-3.4-3.3 1.5-3.3 3.4 1.4 3.4 3.3 3.4zM193.4 63.4h2.7v1.2c.9-.8 2.2-1.5 3.7-1.5 1.2 0 2.3.4 3 1.2.7.7 1 1.6 1 3.3v7H201v-6.5c0-1-.1-1.6-.5-1.9-.3-.4-.8-.6-1.5-.6-1.1 0-2.2.6-2.9 1.4v7.6h-2.8V63.4zM207.6 63.4h2.7v1.2c.9-.8 2.2-1.5 3.7-1.5 1.2 0 2.3.4 3 1.2.7.7 1 1.6 1 3.3v7h-2.8v-6.5c0-1-.1-1.6-.5-1.9-.3-.4-.8-.6-1.5-.6-1.1 0-2.2.6-2.9 1.4v7.6h-2.8V63.4zM223.9 69.7c.3 1.9 1.8 2.8 3.7 2.8 1.4 0 2.7-.5 3.8-1.3v2.5c-1.1.7-2.6 1-4.1 1-3.6 0-6.3-2.3-6.3-5.8 0-3.6 2.7-5.9 5.7-5.9 2.8 0 5.3 1.9 5.3 5.5 0 .4 0 .8-.1 1.1h-8zm0-1.9h5.6c-.2-1.7-1.4-2.5-2.7-2.5-1.3 0-2.6.8-2.9 2.5zM244.3 74c-1 .6-2.3.8-3.5.8-3.6 0-6.2-2.5-6.2-5.8 0-3.5 2.8-5.9 6.3-5.9 1.2 0 2.3.3 3.2.7v2.7c-1-.6-2.1-1-3.2-1-2.2 0-3.6 1.5-3.6 3.5s1.5 3.4 3.7 3.4c1.2 0 2.4-.4 3.3-1.1V74zM248.4 70.5v-4.8h-2v-2.4h2v-3l2.8-.5v3.5h3.2v2.4h-3.2v4.4c0 1.3.2 2.3 1.5 2.3.6 0 1.2-.2 1.7-.5v2.4c-.5.3-1.4.5-2.3.5-1 0-2-.3-2.7-1.1-.7-.6-1-1.5-1-3.2zM259.1 69.7c.3 1.9 1.8 2.8 3.7 2.8 1.4 0 2.7-.5 3.8-1.3v2.5c-1.1.7-2.6 1-4.1 1-3.6 0-6.3-2.3-6.3-5.8 0-3.6 2.7-5.9 5.7-5.9 2.8 0 5.3 1.9 5.3 5.5 0 .4 0 .8-.1 1.1h-8zm0-1.9h5.6c-.2-1.7-1.4-2.5-2.7-2.5-1.3 0-2.6.8-2.9 2.5zM275.8 63.1c1 0 1.8.2 2.4.5v-6.4h2.8v17.4h-2.7V74c-.8.5-1.8.9-3 .9-2.9 0-5.4-2.2-5.4-5.7-.1-3.5 2.4-6.1 5.9-6.1zm0 9.4c.9 0 1.8-.3 2.4-.8V66c-.6-.3-1.4-.6-2.3-.6-2.1 0-3.3 1.6-3.3 3.6s1.2 3.5 3.2 3.5zM289.6 63.4h2.9l1.4 4.3c.4 1.1.7 2.2 1.1 3.4.3-1 .8-2.3 1.1-3.4l1.5-4.3h2l1.5 4.3c.4 1.2.8 2.3 1.1 3.4.3-1.1.7-2.2 1.1-3.4l1.4-4.3h2.8l-3.9 11.2h-2.7l-1.4-3.9c-.4-1-.7-2.1-1-3.1-.3 1-.7 2-1 3.1l-1.4 3.9h-2.7l-3.8-11.2zM311.6 57.9c.9 0 1.7.8 1.7 1.7s-.8 1.7-1.7 1.7c-.9 0-1.7-.8-1.7-1.7s.8-1.7 1.7-1.7zm-1.4 5.5h2.8v11.2h-2.8V63.4zM317.7 70.5v-4.8h-2v-2.4h2v-3l2.8-.5v3.5h3.2v2.4h-3.2v4.4c0 1.3.2 2.3 1.5 2.3.6 0 1.2-.2 1.7-.5v2.4c-.5.3-1.4.5-2.3.5-1 0-2-.3-2.7-1.1-.7-.6-1-1.5-1-3.2zM326.5 57.1h2.8v7.4c.9-.8 2.2-1.5 3.7-1.5 1.2 0 2.3.4 3 1.2.7.7 1 1.6 1 3.3v7h-2.8V68c0-1-.1-1.6-.5-1.9-.4-.4-.9-.6-1.5-.6-1.1 0-2.2.6-3 1.4v7.6h-2.8V57.1zM346.7 63.4h2.7v1.2c.9-.8 2.2-1.5 3.7-1.5 1.2 0 2.3.4 3 1.2.7.7 1 1.6 1 3.3v7h-2.8v-6.5c0-1-.1-1.6-.5-1.9-.3-.4-.8-.6-1.5-.6-1.1 0-2.2.6-2.9 1.4v7.6h-2.8V63.4zM361.4 74.1c-.8-.6-1.3-1.5-1.3-2.6 0-1.2.6-2.1 1.4-2.7.8-.6 2-.8 3.1-.8.8 0 1.5.1 2.2.3v-.7c0-.7-.2-1.2-.5-1.5-.4-.4-1.1-.5-1.9-.5-1.3 0-2.5.5-3.4 1V64c.9-.5 2.2-.9 3.8-.9 1.5 0 2.8.3 3.6 1 .8.6 1.2 1.6 1.2 3v4.3c0 .6.2 1.1.8 1.1.2 0 .4-.1.6-.2v2.2c-.3.2-.8.3-1.4.3-.9 0-1.8-.3-2.3-1-.7.5-1.8 1.1-3.3 1.1-.9-.1-1.8-.3-2.6-.8zm5.5-2.1v-1.9c-.5-.1-1.2-.2-1.7-.2-1.1 0-2.3.4-2.3 1.5 0 .9.8 1.3 1.8 1.3.8-.1 1.7-.4 2.2-.7zM374.5 70.5v-4.8h-2v-2.4h2v-3l2.8-.5v3.5h3.2v2.4h-3.2v4.4c0 1.3.2 2.3 1.5 2.3.6 0 1.2-.2 1.7-.5v2.4c-.5.3-1.4.5-2.3.5-1 0-2-.3-2.7-1.1-.6-.6-1-1.5-1-3.2zM383.3 70.2v-6.9h2.8v6.4c0 1 .2 1.6.5 2 .4.5 1 .6 1.5.6 1.1 0 2.2-.6 2.9-1.5v-7.6h2.8v11.2H391v-1.2c-.9.9-2.1 1.5-3.7 1.5-1.2 0-2.3-.4-3-1.2-.6-.6-1-1.6-1-3.3zM397.6 63.4h2.7V65c.8-1.1 1.9-1.7 3.3-1.7.3 0 .5 0 .8.1V66c-.3-.1-.5-.1-.9-.1-1.3 0-2.4.6-3.1 1.7v7.1h-2.8V63.4zM408.8 69.7c.3 1.9 1.8 2.8 3.7 2.8 1.4 0 2.7-.5 3.8-1.3v2.5c-1 .7-2.6 1-4.1 1-3.6 0-6.3-2.3-6.3-5.8 0-3.6 2.7-5.9 5.7-5.9 2.8 0 5.3 1.9 5.3 5.5 0 .4 0 .8-.1 1.1h-8zm0-1.9h5.6c-.2-1.7-1.4-2.5-2.7-2.5-1.2 0-2.5.8-2.9 2.5zM311.8 29h-8.4v-6.8H328V29h-8.4v21.2h-7.8V29zM330.4 22.2H353v6.6h-14.9V33h13.5v6.1h-13.5v4.4h15.1v6.6h-22.8V22.2zM365.8 22h7.5l11.9 28.3h-8.3l-2-5h-10.8l-2 5h-8.2L365.8 22zm6.8 17.2-3.1-8-3.2 8h6.3zM387 22.2h8.2l6.7 10.9 6.7-10.9h8.2v28.1h-7.7V34.1l-7.2 11h-.2l-7.1-10.9v16H387v-28z" data-color="1"/></g></svg>
